<svg xmlns="http://www.w3.org/2000/svg" viewBox="0 0 320 220"><style>path{vector-effect:non-scaling-stroke}</style><defs><clipPath id="land"><path d="M118.9,174.7L119.6,175.2L118.6,174.6L118.9,174.7Z"/><path d="M117.6,169.8L117.1,170.1L116.7,169.8L116.7,168.8L117.3,168.6L117.7,168.8L117.6,169.8Z"/><path d="M63.3,142.0L62.5,141.9L62.3,140.9L64.3,141.3L63.3,142.0Z"/><path d="M102.7,139.1L104.4,139.1L106.7,140.5L107.3,140.1L107.6,140.7L108.1,140.5L107.8,140.8L108.4,141.3L107.9,141.6L108.8,141.5L108.8,141.6L107.3,141.7L107.4,141.9L108.8,141.7L108.9,141.8L107.4,142.0L107.5,142.3L109.0,142.2L107.4,142.4L107.8,143.5L107.2,143.6L107.2,144.1L107.9,144.1L107.3,144.2L107.4,146.9L107.5,146.9L110.0,147.6L109.9,147.7L107.5,147.0L107.8,148.3L107.2,148.4L107.6,148.4L107.7,148.7L107.8,149.4L109.0,150.7L110.8,151.9L111.0,151.7L110.9,151.9L111.2,151.7L111.3,151.7L110.8,152.3L111.9,152.2L111.5,152.5L112.1,152.5L113.9,154.9L114.1,154.5L113.9,154.9L115.9,156.9L117.2,157.5L117.4,159.9L118.0,160.2L113.0,163.6L112.1,164.4L111.5,164.9L111.8,165.2L108.5,167.4L108.2,167.7L108.2,167.9L108.7,168.1L108.6,168.1L108.2,167.9L108.1,168.0L106.4,169.1L107.3,169.6L106.4,169.2L106.2,169.7L105.9,169.6L104.2,170.7L104.5,170.9L103.6,171.0L100.8,173.0L100.5,173.3L100.3,173.6L100.7,173.8L100.7,173.8L100.2,173.6L99.1,174.5L98.2,174.6L96.7,176.3L96.0,176.1L95.4,176.6L94.6,177.6L94.8,177.9L93.2,178.2L92.7,179.2L93.0,179.4L92.1,179.3L91.2,180.5L89.9,180.1L87.1,182.8L85.2,182.8L83.6,183.8L82.2,184.1L78.0,188.6L74.8,190.9L73.8,190.6L73.0,188.3L76.3,188.2L78.4,186.2L77.4,187.0L77.8,187.1L79.3,186.0L79.6,184.7L78.3,183.6L75.9,183.3L74.7,183.6L75.1,184.1L74.5,183.8L74.8,184.2L74.3,183.6L73.8,184.0L74.5,184.4L73.9,184.1L74.3,184.5L73.5,184.4L74.1,184.7L73.0,184.5L73.6,184.8L73.1,184.6L73.6,185.0L72.9,184.9L73.3,185.2L72.6,184.9L73.1,185.3L72.5,184.9L73.1,185.4L72.3,185.3L72.8,185.6L72.1,185.2L72.1,187.0L72.6,187.5L72.1,187.1L72.0,187.2L72.4,187.5L71.3,187.5L70.8,188.1L68.5,188.7L65.0,191.2L61.9,191.8L57.9,193.6L56.6,193.6L54.1,195.3L52.3,194.6L50.4,195.2L45.1,199.3L42.8,198.7L42.6,198.1L43.1,197.9L38.8,198.5L33.6,202.2L29.9,202.9L26.7,202.8L23.8,203.6L22.3,204.7L20.0,204.7L18.8,205.3L17.3,205.0L15.4,203.5L14.4,201.9L14.2,200.3L15.2,199.5L14.8,199.3L15.4,199.3L15.3,198.6L16.0,197.7L17.0,197.1L16.8,196.6L17.5,197.1L17.1,196.6L17.8,196.6L17.4,196.2L17.9,196.0L18.4,196.8L18.9,196.7L18.6,196.2L19.5,196.1L19.3,195.8L21.0,195.7L22.3,194.9L20.7,194.4L20.8,193.2L20.2,192.8L21.4,190.1L21.2,188.7L20.1,187.6L19.5,187.6L19.9,187.1L19.3,185.8L18.1,184.9L20.5,182.8L21.1,183.2L22.0,182.9L24.0,181.6L24.0,180.8L25.6,180.8L26.9,179.4L28.2,179.1L32.0,179.3L32.5,179.9L32.8,179.3L33.1,179.8L33.1,179.2L33.6,179.7L34.4,179.5L35.0,178.9L35.8,179.0L36.5,178.2L36.9,177.3L36.8,176.0L38.5,172.9L39.6,168.6L40.4,167.2L40.2,164.8L41.6,164.1L41.1,163.9L41.6,164.0L43.9,161.5L43.3,159.3L41.5,157.5L41.2,156.5L41.4,154.3L42.3,153.1L42.4,153.0L42.1,151.2L42.4,151.2L41.8,150.0L42.2,146.9L42.4,146.4L44.3,145.5L45.4,143.8L49.5,141.2L50.4,140.9L51.0,141.7L51.0,140.7L52.8,140.8L52.8,140.4L53.3,140.6L53.0,141.8L53.2,141.4L54.7,141.7L54.5,141.2L55.1,141.2L55.0,140.6L55.7,140.4L56.5,141.4L57.2,141.4L57.1,142.2L56.4,142.5L57.1,142.2L57.4,141.5L57.3,141.9L59.7,142.0L59.9,141.6L60.1,142.1L60.5,141.7L60.4,142.4L60.8,142.1L60.9,142.7L61.0,142.2L61.1,142.7L61.4,142.2L62.2,142.4L61.9,143.2L62.6,142.9L62.9,143.3L63.1,142.7L63.1,142.7L62.9,143.4L63.4,143.6L63.5,143.2L64.1,143.6L64.1,143.2L64.2,143.2L64.2,143.6L65.2,143.7L65.7,143.7L65.7,143.0L65.7,143.0L65.8,143.8L66.7,143.9L67.0,143.4L67.5,143.7L67.5,143.3L67.4,142.9L68.4,143.8L68.7,143.2L68.9,143.8L68.8,143.2L71.3,143.2L72.1,142.5L76.1,141.8L78.3,142.4L78.6,142.1L78.4,142.3L78.7,142.5L78.9,142.1L78.9,142.5L79.0,142.6L79.9,143.0L79.8,142.6L80.4,142.6L80.2,142.1L80.6,142.0L80.4,142.6L81.3,142.6L82.4,142.0L83.5,142.1L83.5,141.7L83.9,142.0L83.7,141.6L83.8,141.6L84.0,142.0L84.2,142.0L84.0,141.6L84.3,142.0L84.9,141.9L84.9,141.3L85.1,141.7L85.1,141.3L85.8,141.6L86.5,140.9L88.7,140.3L94.3,140.5L97.2,140.1L100.9,138.8L102.7,139.1Z"/><path d="M214.5,167.1L211.6,168.1L210.8,167.3L210.4,165.8L211.1,164.7L212.9,163.6L213.7,163.8L213.9,163.8L215.5,165.3L214.5,167.1Z"/><path d="M211.3,160.6L211.2,161.5L210.9,161.4L211.3,160.6Z"/><path d="M185.6,160.3L187.4,160.9L188.9,162.4L189.1,163.5L187.9,163.8L186.6,162.4L184.6,161.3L184.4,160.7L185.6,160.3Z"/><path d="M210.9,160.5L210.5,160.6L210.8,159.0L210.9,159.4L210.9,160.5Z"/><path d="M220.0,161.3L217.8,161.8L215.9,161.6L214.4,159.9L215.6,159.0L218.8,159.3L220.8,160.6L220.0,161.3Z"/><path d="M212.6,158.5L212.2,158.8L211.9,158.7L212.6,158.5Z"/><path d="M222.9,158.0L224.1,158.0L223.5,158.6L222.3,158.0L222.9,158.0Z"/><path d="M229.2,157.0L228.5,157.6L229.2,156.7L229.2,157.0Z"/><path d="M212.6,156.6L211.7,157.0L211.7,156.5L212.2,156.4L212.6,156.6Z"/><path d="M211.2,157.2L210.5,158.0L209.5,155.5L210.1,155.6L210.5,155.9L210.6,156.3L211.2,157.2Z"/><path d="M221.0,154.7L221.4,154.8L221.2,155.7L221.5,155.8L219.0,156.6L219.3,157.0L218.7,156.8L218.8,156.3L217.9,155.4L220.2,155.6L219.9,155.2L220.4,155.3L221.0,154.7Z"/><path d="M223.9,154.0L226.0,155.1L227.3,154.4L228.3,154.7L226.9,156.6L226.1,156.4L226.7,156.8L225.6,157.1L226.1,157.6L225.6,158.1L224.1,158.3L225.4,157.9L224.6,157.9L224.4,157.3L224.3,158.1L224.0,157.2L223.6,157.4L223.8,157.9L222.5,157.9L223.3,157.3L223.1,156.9L223.1,157.4L221.4,157.5L222.9,156.6L223.9,156.6L223.1,156.5L223.6,155.8L223.4,155.1L223.9,155.3L223.5,154.1L223.9,154.0Z"/><path d="M229.6,151.0L229.4,153.8L227.5,153.3L228.8,152.6L228.5,151.5L229.0,151.5L228.9,151.2L229.5,151.5L229.2,151.3L229.6,151.0Z"/><path d="M229.0,150.2L229.6,150.2L229.4,150.9L228.9,150.9L229.0,150.2Z"/><path d="M221.1,149.9L222.0,150.3L220.8,151.3L217.9,151.6L217.4,151.2L218.6,150.5L218.9,151.0L220.3,151.1L220.6,150.6L220.0,150.1L221.1,149.9Z"/><path d="M215.1,149.6L214.6,149.9L214.2,149.7L215.1,149.6Z"/><path d="M223.3,149.2L224.8,149.9L223.6,150.0L223.3,149.2Z"/><path d="M226.1,148.1L226.6,148.2L226.0,148.8L225.1,148.1L226.1,148.5L226.1,148.1Z"/><path d="M211.7,152.5L207.0,153.2L206.2,152.9L206.0,152.0L206.7,150.9L208.0,150.1L212.8,147.8L213.1,147.9L213.3,147.9L213.7,148.5L212.8,149.9L213.6,151.3L213.2,152.0L211.7,152.5Z"/><path d="M219.7,146.1L220.4,146.7L217.9,147.1L216.9,146.8L217.4,145.8L219.0,145.4L220.0,145.4L219.7,146.1Z"/><path d="M223.1,144.7L222.4,145.8L221.2,146.1L222.1,143.8L222.9,143.2L224.2,144.1L223.1,144.7Z"/><path d="M168.0,99.5L172.0,100.4L171.7,101.5L172.5,100.6L172.7,101.1L173.0,100.7L174.1,101.1L176.3,103.6L180.8,104.6L183.2,108.2L181.0,108.8L180.6,109.1L180.7,109.7L179.3,110.0L179.8,110.6L179.1,110.8L179.4,111.5L178.7,111.6L178.7,111.8L179.4,111.6L180.2,112.7L179.6,111.4L180.0,111.2L179.5,111.1L180.2,110.8L180.0,110.0L181.2,109.8L181.0,109.3L181.3,109.1L183.1,108.7L183.7,109.0L184.0,109.4L183.0,109.9L185.1,111.9L184.6,112.4L189.7,115.0L189.1,115.5L190.3,116.1L189.7,116.6L193.5,118.4L192.8,119.1L195.0,120.2L194.8,120.4L195.5,121.7L195.1,121.8L197.5,124.2L198.7,122.9L199.5,123.7L203.6,122.3L206.2,120.4L206.2,120.4L209.0,119.1L211.8,118.8L213.1,124.4L214.0,124.2L214.5,125.6L214.7,125.6L214.9,125.6L215.9,129.1L217.3,128.9L218.3,132.3L216.9,132.5L217.4,133.9L214.5,134.7L214.5,135.3L217.6,138.2L217.0,139.5L217.6,141.1L215.1,141.4L212.7,142.7L213.0,142.9L212.9,142.9L212.4,142.7L210.7,140.6L209.7,140.2L206.3,136.3L211.1,143.1L212.1,143.5L211.2,143.9L211.3,143.6L209.5,144.2L208.8,144.1L206.7,143.1L205.7,142.2L205.9,141.8L204.8,141.0L204.2,140.7L203.1,140.9L202.1,140.1L202.0,139.2L200.3,138.6L201.4,140.0L201.1,139.6L201.7,139.6L202.1,140.3L201.8,140.4L206.6,143.4L207.4,144.4L204.1,146.6L203.9,147.2L204.6,147.8L204.3,147.9L204.0,148.1L203.3,147.5L202.1,147.7L199.3,149.9L198.0,150.3L187.5,146.1L186.8,146.4L194.6,149.5L194.3,149.8L195.5,150.6L197.5,150.8L198.0,151.5L197.4,152.5L197.8,153.8L200.3,154.5L198.8,155.2L200.3,154.7L201.0,155.1L199.7,156.1L199.1,157.2L195.7,157.6L195.2,157.0L195.6,155.7L195.0,155.0L194.5,154.9L195.0,155.5L191.2,152.5L191.5,152.9L191.1,152.9L191.7,153.2L191.2,152.7L190.8,152.9L194.6,155.5L194.9,157.6L193.0,158.0L192.7,157.3L191.3,157.2L190.7,157.5L191.5,158.3L188.8,158.4L187.2,157.1L187.3,156.0L187.0,156.2L188.3,155.0L188.1,154.0L188.5,153.6L187.3,154.2L187.6,154.5L187.2,154.2L187.7,154.9L186.5,155.6L186.5,156.5L186.0,156.5L186.5,156.8L185.8,156.6L186.4,156.9L185.8,156.7L188.4,158.8L190.2,159.2L191.1,158.9L190.2,159.2L191.1,159.4L196.1,158.5L199.6,158.7L202.0,157.8L203.9,157.7L204.4,158.1L204.5,158.3L204.2,158.8L206.5,164.1L206.5,165.3L207.6,166.7L206.1,168.7L198.0,170.2L197.5,169.2L197.4,167.4L196.6,165.8L195.9,165.7L196.2,165.5L195.1,165.6L195.7,165.3L195.4,165.3L193.5,165.8L192.4,165.3L192.1,165.5L192.4,165.7L189.8,166.1L189.6,162.5L187.7,160.4L184.6,159.3L183.1,160.2L180.6,158.9L180.8,158.4L179.9,158.4L179.3,158.9L179.9,159.3L181.7,160.1L184.6,162.3L186.4,163.1L188.1,164.3L188.3,164.9L185.9,166.2L183.0,166.3L181.4,165.3L183.5,163.9L180.8,165.0L180.1,164.3L180.4,162.7L179.1,162.3L179.9,163.6L179.8,164.6L180.6,165.0L180.2,165.1L180.6,165.5L179.8,165.8L181.1,165.7L181.4,166.2L181.7,166.0L182.8,166.8L188.8,166.1L189.3,166.4L189.4,167.3L186.9,167.4L187.9,167.8L189.6,167.5L189.9,168.0L188.0,168.1L183.3,167.3L179.8,167.6L174.5,167.2L168.4,167.5L168.5,167.9L170.4,167.8L173.9,168.4L179.1,168.2L179.9,170.5L177.9,170.9L173.1,170.6L165.6,171.7L161.4,171.7L156.1,172.6L155.7,172.3L153.5,172.5L153.3,172.5L153.0,172.5L153.2,173.4L153.0,172.5L149.4,173.0L144.3,172.9L143.6,173.3L143.4,172.4L138.6,171.0L138.0,169.8L138.4,169.1L141.6,167.9L145.6,168.0L145.8,168.2L145.9,168.5L150.6,169.3L151.5,168.9L151.8,168.1L150.8,169.0L149.0,168.3L149.7,166.8L147.0,167.8L144.6,167.5L144.5,167.0L145.7,166.5L144.9,166.1L147.7,165.0L145.7,165.6L147.3,165.0L147.3,165.0L147.1,164.7L144.5,166.0L145.8,165.2L145.0,164.8L146.1,163.7L144.6,163.8L145.5,162.9L144.1,163.3L142.6,161.6L138.4,159.5L129.4,158.0L126.3,156.0L124.2,153.6L123.3,149.5L123.7,146.9L125.9,143.1L124.9,142.8L124.9,142.8L125.9,143.0L126.5,142.4L126.0,141.9L127.3,140.8L128.2,141.1L129.1,140.4L130.3,140.9L131.4,139.9L129.7,138.8L131.9,139.7L132.4,139.3L131.7,138.4L132.0,138.0L131.4,137.9L132.3,137.8L131.7,137.5L131.7,137.5L133.0,137.8L131.7,137.1L133.8,137.9L132.5,137.0L133.5,137.3L133.9,137.1L132.8,136.5L133.7,136.7L133.6,136.2L135.4,136.6L134.4,136.1L134.5,136.0L135.6,136.5L135.9,136.2L134.6,135.5L136.2,136.0L136.3,135.9L134.9,135.1L136.8,135.4L135.7,134.6L137.0,135.3L137.1,135.2L137.3,135.0L135.8,134.2L136.2,134.0L136.8,133.6L138.6,134.4L138.9,134.2L139.0,134.1L137.5,133.3L138.0,133.1L138.2,133.1L139.5,133.8L140.3,134.2L140.9,133.7L139.4,132.9L139.3,132.8L139.8,132.5L142.5,133.3L141.5,132.7L142.9,133.0L140.8,131.9L141.6,132.3L141.8,132.0L142.8,132.8L142.2,131.7L144.1,132.7L144.9,132.0L143.2,131.1L145.2,130.3L145.3,128.9L144.5,130.2L143.6,130.2L143.2,130.8L141.7,130.5L141.1,131.3L142.3,129.3L141.9,129.2L140.8,130.9L140.7,130.8L141.1,130.2L139.7,130.2L138.8,131.7L136.7,132.0L136.1,131.8L135.8,131.7L135.6,131.4L134.8,128.9L135.1,128.9L135.8,129.1L136.3,131.8L138.4,131.5L139.4,130.0L138.8,129.3L137.5,129.7L137.4,129.7L137.4,129.7L138.7,129.3L137.4,129.0L137.0,129.3L136.9,129.3L137.4,128.7L136.7,129.2L136.7,129.1L138.1,128.2L137.0,128.7L136.4,128.3L137.2,127.7L137.1,127.6L135.1,128.6L135.9,128.0L135.5,127.9L135.6,127.3L135.1,127.4L135.5,126.8L134.5,126.5L135.3,126.2L134.7,125.9L135.4,125.9L134.7,125.7L134.8,125.4L138.1,123.7L138.5,124.0L137.5,124.5L138.0,125.1L139.8,123.8L139.5,123.7L139.2,123.3L138.7,123.6L138.6,123.6L140.6,122.5L141.7,122.5L143.2,120.7L144.2,120.8L143.8,119.8L147.5,114.6L149.3,114.8L149.7,114.4L155.7,113.9L155.6,114.4L156.3,114.7L156.2,115.1L157.0,114.5L156.5,115.3L156.9,115.6L157.2,115.2L157.3,115.2L156.9,115.7L157.7,115.8L157.1,116.7L157.9,116.0L158.8,116.5L158.1,115.9L158.4,115.8L159.6,116.5L158.3,115.5L158.6,115.3L160.3,116.3L158.9,115.3L158.6,115.1L160.5,115.8L157.6,113.9L158.7,113.8L158.3,113.6L157.6,113.2L159.4,114.0L158.8,112.6L159.9,113.5L159.9,114.4L161.2,115.1L161.3,115.0L160.4,114.3L160.0,111.6L160.4,111.7L160.4,111.6L162.4,107.8L163.7,106.8L164.0,105.6L166.2,105.8L164.3,105.3L164.6,104.0L163.9,101.7L165.9,99.9L168.0,99.5Z"/><path d="M233.3,164.2L232.7,164.4L232.8,163.8L233.8,163.6L233.3,164.2Z"/><path d="M230.5,162.9L230.9,163.8L229.6,164.9L229.1,164.8L225.4,163.6L224.6,162.9L224.6,162.2L226.0,161.3L226.1,161.3L227.6,161.5L229.0,162.7L230.5,162.9Z"/><path d="M241.7,160.1L241.4,160.6L240.5,160.7L239.1,159.2L239.2,158.3L240.0,158.2L241.6,158.9L241.7,160.1Z"/><path d="M246.6,157.0L247.8,157.2L247.6,157.7L246.7,157.8L247.9,157.8L246.5,158.0L247.8,158.0L248.0,157.3L248.7,158.0L244.8,158.2L245.2,157.3L246.4,157.0L246.2,157.3L246.6,157.4L246.6,157.0Z"/><path d="M248.5,156.2L248.8,156.5L248.5,156.9L248.9,156.5L249.0,156.9L248.9,157.8L249.0,157.3L246.5,156.9L244.7,157.4L246.3,156.3L248.5,156.2Z"/><path d="M232.8,156.0L233.6,156.2L233.6,156.7L233.1,156.6L233.7,156.7L234.2,158.0L231.9,157.6L231.9,156.9L232.9,156.5L232.8,156.0Z"/><path d="M230.4,155.9L231.4,156.7L231.5,157.4L230.5,157.9L228.6,157.7L230.4,155.9Z"/><path d="M263.8,153.9L264.5,154.1L264.6,154.8L267.1,155.4L266.4,156.2L267.2,155.4L267.3,155.7L269.4,155.7L273.3,154.7L274.4,154.9L275.6,156.8L278.2,158.7L278.2,161.1L277.3,161.7L276.4,161.5L277.4,161.8L278.2,161.3L278.4,162.5L274.0,162.6L270.5,164.0L266.5,163.7L259.1,164.3L239.9,167.3L229.5,169.8L214.8,174.7L214.3,174.5L212.8,174.9L212.9,175.1L211.4,175.2L210.7,175.4L210.9,175.7L210.6,175.4L209.8,176.0L209.4,175.7L198.3,178.8L192.2,179.4L175.1,185.0L175.0,185.4L174.9,185.4L175.2,180.8L175.7,179.7L177.1,178.8L179.5,178.4L182.4,176.8L186.7,176.3L189.7,175.3L189.6,175.0L189.7,175.3L190.8,175.2L190.7,175.6L191.7,175.7L192.3,176.3L194.3,176.0L194.9,176.3L197.7,175.2L197.9,174.4L199.5,173.8L201.3,174.1L203.7,173.7L203.7,174.1L204.1,173.9L203.9,173.6L207.0,173.7L221.0,167.9L226.7,168.0L227.1,167.6L232.2,166.7L232.5,166.2L234.1,165.7L235.8,165.9L239.8,164.1L240.0,164.0L239.8,163.7L240.8,163.8L240.9,163.2L241.0,163.7L241.1,163.1L241.2,163.5L241.7,163.5L241.9,162.9L243.7,163.6L243.8,164.1L243.8,163.6L244.6,163.6L242.7,162.6L243.7,162.0L244.7,162.6L244.8,163.2L245.5,163.3L245.5,162.7L245.1,162.7L245.4,162.6L245.1,162.6L245.6,162.5L245.0,162.5L244.1,161.3L245.2,160.6L250.7,160.1L253.0,158.7L253.7,158.7L251.7,160.4L251.2,161.6L251.4,162.3L251.6,161.8L251.8,162.4L251.8,161.8L252.0,162.4L252.3,161.0L255.2,159.0L255.1,157.8L257.7,155.9L259.9,156.2L259.7,156.9L259.0,156.1L259.7,156.9L259.7,158.2L257.9,159.9L256.9,159.8L256.0,160.5L256.3,161.1L256.9,161.4L259.5,159.3L260.2,160.9L263.0,161.0L261.5,160.3L262.0,158.9L261.8,158.0L262.6,156.0L260.9,155.1L260.3,155.3L260.6,155.7L259.9,154.9L260.3,154.1L263.8,153.9Z"/><path d="M263.7,153.6L261.6,153.2L262.8,151.1L263.4,151.2L263.7,153.6Z"/><path d="M230.5,149.6L229.6,150.8L230.1,149.7L229.6,149.7L230.5,149.6Z"/><path d="M240.5,149.1L240.8,149.8L240.1,150.4L240.1,149.7L239.4,149.0L240.4,148.5L240.5,149.1Z"/><path d="M247.4,149.1L247.9,149.4L247.4,149.2L246.6,149.6L247.4,149.9L246.7,151.5L245.7,151.0L246.1,152.0L245.0,153.8L243.5,150.4L244.0,149.7L245.9,148.9L247.2,148.5L248.0,148.7L247.4,149.1Z"/><path d="M239.5,147.4L239.3,148.1L238.4,147.1L238.6,146.9L239.0,146.9L239.3,147.0L239.5,147.4Z"/><path d="M228.4,146.1L228.9,146.3L228.4,146.4L228.4,146.1Z"/><path d="M234.8,143.1L236.2,147.5L238.5,149.3L237.2,150.1L238.9,150.7L238.9,151.1L238.9,151.3L238.0,151.7L237.7,152.5L238.4,153.9L239.6,153.7L238.9,154.0L239.1,154.4L238.5,154.5L238.9,155.6L239.4,155.3L239.4,155.4L239.0,155.8L239.2,156.6L238.8,157.4L237.9,157.8L237.3,160.4L235.9,162.4L229.5,162.5L229.0,162.0L230.2,161.0L232.4,161.1L233.5,160.3L234.2,160.9L234.6,160.1L235.8,160.1L234.3,159.7L235.0,159.0L235.1,157.5L236.5,156.2L236.7,155.5L236.3,154.8L235.9,155.3L236.3,155.8L235.7,156.4L235.6,155.8L233.7,153.9L232.8,154.3L232.7,153.9L231.0,153.6L229.4,153.8L229.6,151.0L230.6,150.5L230.1,150.6L230.1,150.2L231.3,150.3L231.9,149.5L231.2,150.2L231.2,149.6L230.9,150.1L230.4,150.0L231.1,148.7L230.3,148.3L230.6,147.6L229.9,147.8L230.9,145.8L229.7,143.3L230.3,143.1L232.4,144.5L233.5,144.5L234.3,144.3L234.4,142.7L234.8,143.1Z"/><path d="M217.6,138.2L215.6,136.0L217.6,138.2Z"/><path d="M231.3,136.1L231.5,135.9L231.3,136.1Z"/><path d="M273.9,81.6L274.5,81.9L273.9,82.0L273.9,81.6Z"/><path d="M236.3,72.5L238.7,73.4L239.8,74.2L239.9,74.0L239.9,74.0L239.9,74.3L240.5,73.8L244.0,74.6L245.1,74.3L249.5,75.2L249.3,76.6L249.9,77.7L250.4,77.9L251.7,77.2L255.7,76.8L254.7,76.6L255.8,76.7L256.1,76.8L256.6,76.0L256.1,75.8L256.6,75.9L256.6,75.7L256.6,75.6L255.3,75.2L257.3,74.4L258.6,74.5L259.9,75.4L261.7,78.0L259.9,78.7L258.8,78.0L263.0,81.9L263.7,81.8L263.0,82.0L264.6,84.4L267.9,87.2L269.8,87.7L271.7,89.6L274.0,90.7L274.2,91.4L275.0,91.9L273.0,89.8L271.6,89.3L269.7,87.1L270.0,86.6L269.4,85.4L270.6,84.6L269.6,83.2L269.8,82.7L269.5,82.7L269.9,82.7L270.7,81.1L271.6,80.6L273.2,81.4L273.4,82.1L274.6,82.9L274.3,82.4L274.6,82.1L275.0,82.6L274.8,83.2L275.3,82.3L277.7,83.4L296.7,93.5L297.1,94.4L297.8,99.4L293.9,104.4L289.2,105.0L282.3,106.9L284.1,112.2L284.7,125.4L283.7,127.8L283.3,132.6L284.7,135.4L284.9,137.4L279.9,138.4L276.6,139.7L276.3,142.0L276.7,142.4L276.2,142.6L277.6,144.5L276.5,144.9L276.1,144.6L276.8,143.6L275.4,143.6L275.5,143.1L274.9,143.9L274.0,144.2L274.7,143.5L273.7,143.9L274.2,142.5L273.7,141.3L272.9,140.4L269.8,139.3L272.9,141.2L273.6,142.1L273.0,144.7L264.6,147.3L262.8,149.3L262.0,151.5L261.2,151.2L261.7,150.1L261.2,149.8L259.4,151.7L261.2,149.8L258.7,148.0L257.2,148.2L254.3,151.4L254.7,152.7L256.6,153.7L256.5,154.1L252.5,155.7L251.4,156.7L249.3,155.5L246.3,154.9L247.1,154.3L247.2,153.3L248.1,152.8L249.5,150.3L252.3,150.1L255.1,147.8L255.2,147.0L252.1,145.2L247.7,146.6L251.4,145.1L250.7,144.5L237.4,139.9L235.6,138.4L234.8,136.0L235.7,133.9L237.2,133.5L241.0,133.7L237.2,133.0L234.8,133.9L234.0,135.9L235.0,139.2L233.4,138.3L233.4,139.0L232.2,138.7L231.0,137.6L230.6,136.7L232.0,135.7L230.6,136.6L230.3,136.4L232.0,135.2L231.4,134.0L231.3,134.7L231.9,135.1L230.5,136.2L230.0,135.1L230.5,135.6L230.1,134.9L230.9,134.7L229.7,134.8L231.0,138.8L230.7,139.2L229.1,139.2L228.4,138.6L226.9,133.4L227.3,133.1L226.5,133.0L228.4,140.3L221.5,140.9L220.0,139.5L221.5,137.7L220.0,138.1L218.2,137.7L215.4,135.5L216.2,135.3L216.3,134.6L215.6,134.7L215.8,134.2L215.5,134.5L216.3,134.7L215.7,135.3L214.5,134.7L217.4,133.9L216.9,132.5L218.3,132.3L217.3,128.9L215.9,129.1L214.9,125.6L214.7,125.6L214.5,125.6L214.0,124.2L213.1,124.4L211.8,118.8L209.0,119.1L206.2,120.4L206.2,120.4L203.6,122.3L199.5,123.7L198.7,122.9L197.5,124.2L195.1,121.8L195.5,121.7L194.8,120.4L195.0,120.2L192.8,119.1L193.5,118.4L189.7,116.6L190.3,116.1L189.1,115.5L189.7,115.0L184.6,112.4L185.1,111.9L183.5,110.4L183.4,109.9L185.2,109.6L184.4,109.4L182.9,106.8L183.3,106.3L185.3,106.2L183.0,105.9L180.8,104.2L176.3,103.2L174.5,100.9L172.3,100.2L174.6,99.4L176.0,97.8L175.3,97.7L174.7,99.0L173.9,99.5L171.7,100.0L168.3,99.2L164.7,99.9L163.8,99.6L164.5,98.9L164.1,98.8L164.5,98.0L165.2,97.6L164.8,97.4L165.7,97.1L165.3,96.9L165.9,96.9L165.4,96.7L166.6,95.2L168.6,95.7L167.0,94.9L167.6,94.9L173.5,88.4L175.4,86.9L177.9,86.0L178.2,85.4L176.6,84.9L176.4,84.5L177.2,83.0L178.5,82.5L179.5,82.6L180.5,83.3L180.9,83.2L181.1,83.2L187.0,79.9L189.3,77.6L190.7,76.9L195.6,77.8L197.8,79.2L196.4,80.5L196.3,80.5L195.1,80.5L194.4,81.6L195.1,80.9L196.4,80.8L198.6,79.8L197.7,80.3L198.4,80.7L198.1,80.9L198.1,81.0L198.5,80.7L198.1,81.0L198.7,80.6L199.3,80.9L199.6,80.6L199.4,80.4L199.7,80.6L200.0,80.7L199.3,80.9L200.0,81.3L199.5,81.9L200.2,82.3L199.7,82.7L199.5,82.8L200.1,83.3L199.9,83.9L200.8,82.7L201.1,83.6L200.7,84.5L201.1,84.5L203.9,84.2L203.5,83.9L203.7,83.7L203.2,81.8L206.6,81.4L206.5,80.6L206.1,80.4L208.4,81.0L208.6,81.0L210.4,79.1L210.6,79.1L211.1,79.4L212.1,78.5L211.1,79.5L211.3,80.1L211.8,80.1L209.8,81.2L210.9,81.1L209.7,81.3L218.7,85.1L217.9,85.9L217.2,85.8L218.1,86.5L217.6,86.4L216.5,87.3L214.7,87.5L216.7,89.5L217.3,89.1L217.0,88.8L217.3,89.1L217.7,88.6L217.4,89.1L217.9,89.2L217.1,89.4L217.9,89.7L216.9,89.6L220.9,90.6L221.6,90.3L221.3,89.9L220.2,90.2L221.3,89.8L222.0,90.3L224.8,88.8L225.0,88.4L226.8,87.8L226.6,87.3L224.1,88.0L222.4,87.5L221.8,86.4L221.9,85.7L220.6,85.3L221.3,85.2L221.8,84.5L221.8,82.6L221.4,81.9L220.5,82.1L221.3,81.8L220.0,82.1L221.5,81.7L220.4,81.7L221.5,81.7L220.8,81.2L221.6,80.7L218.5,80.8L218.5,80.3L217.8,80.4L217.1,80.1L216.9,79.4L216.5,79.5L217.1,78.6L217.8,78.8L218.2,78.3L219.8,78.1L218.8,77.9L219.0,77.2L219.9,76.8L219.3,76.3L219.4,75.6L219.9,75.2L221.7,75.9L221.9,75.0L223.2,74.6L224.5,75.2L224.9,75.1L224.9,75.0L224.7,74.6L225.2,74.9L224.9,74.3L224.9,74.3L225.6,75.1L226.1,74.0L227.4,73.6L226.2,74.0L227.2,74.4L227.8,75.7L228.1,76.4L227.6,76.9L228.0,77.1L227.6,77.1L227.7,77.8L228.6,77.5L230.0,78.0L230.7,77.7L230.4,77.3L230.7,76.7L232.0,76.5L231.8,76.0L232.5,76.1L232.1,74.6L231.2,74.5L232.8,74.4L233.1,73.9L234.0,74.1L236.3,72.5Z"/><path d="M139.1,123.3L138.6,123.6L138.5,123.5L140.5,122.6L139.1,123.3Z"/><path d="M142.1,121.9L141.8,122.3L140.7,122.0L140.9,121.7L142.1,121.9Z"/><path d="M142.7,121.4L142.3,121.7L141.2,121.4L141.4,121.0L142.7,121.4Z"/><path d="M143.2,120.7L142.9,121.1L141.8,120.8L142.0,120.4L143.2,120.7Z"/><path d="M122.3,120.8L123.0,120.9L122.0,121.5L120.3,120.9L121.1,120.4L122.3,120.8Z"/><path d="M144.0,120.3L144.3,120.6L142.2,120.1L142.4,119.8L143.7,120.1L144.0,120.3Z"/><path d="M136.1,119.4L138.7,119.9L137.9,120.0L138.7,120.4L138.0,121.7L136.0,122.2L137.0,122.4L136.0,122.3L134.4,122.9L134.2,122.9L134.8,123.0L133.2,123.3L133.4,123.6L132.9,124.0L133.1,123.4L131.2,123.1L131.2,122.6L134.6,119.5L136.1,119.4Z"/><path d="M143.9,119.7L143.8,119.8L142.6,119.5L142.8,119.3L142.9,119.1L144.0,119.5L143.9,119.7Z"/><path d="M144.3,119.0L144.2,119.1L143.2,118.8L143.3,118.6L143.5,118.4L144.6,118.7L144.3,119.0L144.3,119.0Z"/><path d="M145.5,117.4L145.3,117.8L144.2,117.4L144.4,117.1L145.5,117.4Z"/><path d="M145.7,117.1L145.7,117.1L144.7,116.8L145.0,116.4L146.0,116.7L145.7,117.1Z"/><path d="M124.3,116.1L125.4,116.8L125.2,117.0L125.2,117.2L124.8,117.2L124.6,117.4L123.6,116.7L123.4,116.9L124.3,117.5L123.4,118.1L122.4,117.4L124.3,116.1Z"/><path d="M146.6,115.9L145.6,115.9L146.6,115.1L146.8,115.1L147.2,115.2L146.6,115.9Z"/><path d="M153.7,114.1L154.4,114.0L153.7,114.1Z"/><path d="M161.5,108.6L161.8,108.7L161.5,108.6Z"/><path d="M161.8,108.2L162.2,108.4L161.8,108.2Z"/><path d="M162.5,107.7L162.5,107.7L162.2,107.5L162.2,107.5L162.5,107.7Z"/><path d="M162.9,107.6L162.9,107.6L162.6,107.2L162.9,107.6Z"/><path d="M164.4,103.4L163.8,103.6L164.4,103.4Z"/><path d="M164.1,102.8L163.2,102.8L164.1,102.8Z"/><path d="M174.4,86.5L168.6,92.0L164.3,94.9L172.9,86.1L175.3,84.8L175.1,85.8L174.4,86.5Z"/><path d="M176.3,81.3L175.5,81.9L176.0,81.2L176.3,81.3Z"/><path d="M184.8,72.6L188.4,74.9L188.7,75.4L188.7,75.7L188.3,76.1L188.0,76.5L186.3,77.5L184.0,80.2L181.8,81.2L177.4,80.1L177.5,79.2L180.0,76.9L182.4,77.0L182.2,76.5L182.7,76.5L181.5,76.9L181.9,76.5L181.3,76.1L182.0,74.9L181.6,74.2L182.1,72.9L181.8,72.8L182.2,72.8L181.9,72.7L182.8,72.1L184.8,72.6Z"/><path d="M182.2,39.2L184.3,39.5L184.2,40.6L184.9,41.1L185.6,40.9L185.1,40.7L185.1,40.1L186.1,40.5L186.1,41.0L186.8,40.5L186.6,40.8L188.0,40.5L189.9,41.1L190.4,41.8L189.3,44.0L188.1,44.8L188.4,45.0L187.6,45.0L187.9,45.5L185.8,47.3L184.7,46.8L184.6,47.2L185.1,47.6L184.3,48.7L184.7,48.3L180.6,53.3L177.9,57.6L178.5,64.4L178.2,68.8L180.9,72.5L180.8,74.8L177.4,76.9L176.8,77.6L177.3,77.8L176.8,77.7L175.4,79.4L173.7,80.2L173.5,81.6L174.2,81.9L173.8,82.2L174.3,83.4L173.8,84.0L159.3,97.4L158.6,99.4L158.7,100.9L157.7,100.9L158.6,101.1L157.7,101.2L158.3,102.9L159.2,103.8L159.2,104.6L158.2,108.4L156.6,111.5L154.3,112.3L150.6,112.6L150.4,112.2L145.7,112.8L144.1,113.5L144.4,114.2L144.3,114.2L143.9,114.4L143.0,114.1L142.7,114.2L143.2,114.8L142.6,114.3L141.3,114.9L141.9,115.5L141.2,115.0L139.9,115.7L140.8,116.0L140.3,116.1L140.4,116.2L140.3,116.3L139.8,115.7L139.0,115.9L139.0,115.9L139.2,116.4L139.0,116.1L138.6,116.5L138.0,116.3L138.0,116.6L137.6,116.1L137.4,116.5L137.0,116.4L137.2,116.2L135.6,115.0L135.7,114.7L135.2,114.6L135.8,114.5L135.8,114.5L135.1,114.5L134.8,113.9L135.4,113.1L135.1,113.0L135.6,110.9L136.2,111.2L136.4,110.7L135.6,110.8L136.2,108.4L138.0,108.3L137.8,107.8L136.3,107.7L138.1,107.7L136.7,107.1L138.3,107.2L138.7,105.3L136.9,105.1L138.8,105.0L138.9,104.2L137.3,104.1L137.5,103.2L137.5,103.2L139.0,103.3L139.1,102.2L137.5,102.0L139.2,102.0L138.6,101.7L138.6,101.6L139.2,101.6L139.3,100.0L139.0,99.8L139.4,99.5L138.2,98.8L139.8,98.8L138.9,98.3L140.0,97.9L138.5,97.6L140.1,97.4L140.2,97.0L138.7,96.7L139.9,96.6L138.8,96.2L140.0,96.2L138.9,95.8L140.1,95.7L139.0,95.3L140.0,94.6L139.2,94.3L139.3,94.2L140.1,94.5L140.3,93.9L139.9,93.7L140.4,93.8L139.6,93.5L140.4,93.7L142.2,91.4L141.1,90.7L142.7,90.7L142.5,90.4L143.5,89.7L142.4,89.2L143.6,89.6L143.8,89.4L143.9,89.2L142.8,88.8L142.8,88.8L144.0,89.2L144.2,88.9L143.1,88.3L144.9,88.8L145.1,88.6L143.5,88.0L143.5,88.0L145.3,88.4L145.6,88.0L143.9,87.4L145.7,87.8L145.9,87.6L146.0,87.4L144.4,86.8L146.1,87.3L146.3,87.1L146.5,86.9L144.8,86.3L144.8,86.3L146.2,86.6L146.4,86.3L145.2,85.8L145.3,85.7L146.6,86.1L147.0,85.6L146.8,85.4L147.3,85.4L146.2,84.9L146.3,84.8L147.4,85.2L146.6,84.7L147.8,84.8L146.6,84.3L147.8,84.7L148.6,83.8L150.4,81.8L149.0,81.9L149.1,81.8L150.4,81.7L152.1,79.4L151.7,79.0L151.3,79.4L151.8,79.0L152.1,79.3L152.0,79.0L152.5,78.8L151.9,78.9L152.5,78.8L163.0,66.1L165.7,63.6L165.3,63.0L166.0,63.3L165.3,62.7L167.0,60.8L167.9,60.8L169.6,58.8L172.2,53.9L171.8,51.0L174.4,49.5L179.2,43.5L179.4,42.0L180.4,40.6L182.2,39.2ZM139.9,98.2L139.5,98.0L139.5,98.4L139.9,98.5L139.9,98.2Z"/><path d="M192.3,40.0L191.8,41.2L191.2,41.5L190.2,40.7L187.7,40.0L190.5,38.6L192.3,40.0Z"/><path d="M197.4,74.8L196.1,74.5L196.5,74.3L196.8,74.2L197.4,74.8Z"/><path d="M201.4,73.5L209.6,76.7L210.4,77.3L210.6,78.2L209.5,79.1L206.8,79.4L201.3,78.5L200.7,77.4L199.7,77.2L199.4,76.1L199.5,75.7L199.9,74.4L200.4,73.8L201.7,73.8L201.4,73.5Z"/><path d="M196.6,71.9L197.5,72.6L196.8,73.2L196.4,73.4L196.2,73.3L195.6,73.3L195.7,72.6L196.6,71.9Z"/><path d="M252.7,57.9L252.2,58.0L252.1,57.6L252.6,57.6L252.7,57.9Z"/><path d="M245.6,54.8L243.2,54.9L243.3,54.5L245.6,54.8Z"/><path d="M256.6,49.1L256.3,48.8L256.6,49.1Z"/><path d="M255.5,48.8L255.6,49.1L255.0,49.1L255.5,48.8Z"/><path d="M252.3,47.4L252.5,48.0L252.9,47.9L252.5,48.0L252.6,49.3L253.2,49.3L252.7,49.4L253.4,49.4L252.9,49.7L254.0,50.4L255.2,50.5L254.6,50.7L255.0,50.9L254.8,51.2L255.4,51.6L256.2,51.5L255.6,52.0L256.5,51.9L255.6,52.0L256.2,52.1L255.9,52.7L256.8,52.5L255.7,52.8L255.4,53.2L256.0,53.0L255.4,53.3L256.0,53.2L255.2,53.6L255.2,54.0L256.7,53.6L257.0,53.9L255.2,54.0L255.5,54.5L256.8,54.3L256.8,53.9L256.8,53.9L256.8,54.3L255.5,54.5L256.7,54.3L256.7,54.4L255.8,54.5L256.2,54.6L255.9,54.8L256.9,54.7L256.0,54.8L256.6,55.0L256.1,55.1L256.4,55.8L255.5,57.2L254.0,56.8L254.3,56.7L254.0,55.9L252.8,55.3L253.1,55.0L252.3,54.1L251.9,54.2L252.1,53.7L250.9,52.6L251.3,51.6L252.0,51.4L251.4,51.3L251.9,51.2L251.7,50.8L252.1,50.6L251.4,50.6L252.0,50.5L251.4,50.5L251.8,50.2L250.6,50.5L251.8,50.2L250.2,50.4L251.2,50.1L250.1,50.2L251.6,49.9L250.4,50.1L251.4,49.8L250.4,49.9L251.3,49.5L250.6,49.6L251.3,49.5L250.6,49.5L251.2,49.2L250.6,48.7L250.9,48.3L250.3,48.3L251.0,48.2L250.4,47.9L250.9,48.1L250.9,48.1L250.5,48.0L250.9,48.1L251.4,47.9L251.1,47.6L251.4,47.9L252.3,47.4Z"/><path d="M263.2,49.3L262.4,50.1L262.8,50.9L262.3,52.2L263.1,53.3L262.6,53.3L261.3,52.3L261.4,52.1L261.6,51.3L260.6,50.3L261.2,50.1L260.6,49.5L261.0,49.3L261.0,46.9L261.6,46.8L262.3,47.1L264.5,49.0L263.2,49.3Z"/><path d="M254.6,46.6L254.3,47.4L253.0,47.4L253.4,46.7L254.6,46.6Z"/><path d="M255.4,45.6L255.4,45.9L255.4,45.6Z"/><path d="M254.9,45.5L254.6,45.7L254.9,45.5Z"/><path d="M261.2,41.8L260.9,41.8L260.7,41.7L261.6,41.8L261.2,41.8Z"/><path d="M259.6,40.7L259.7,40.4L259.6,40.7Z"/><path d="M256.0,40.2L255.6,40.4L256.0,40.2Z"/><path d="M256.3,39.9L256.4,39.6L256.3,39.9Z"/><path d="M255.2,39.3L255.0,39.6L255.2,39.3Z"/><path d="M254.5,37.9L255.1,38.1L254.5,37.9Z"/><path d="M209.5,27.5L216.4,29.2L216.7,28.7L216.4,28.4L217.1,28.4L217.6,27.8L217.6,27.1L218.2,27.1L217.8,26.7L219.3,26.0L218.8,25.9L218.9,25.5L219.7,24.9L220.7,24.9L219.5,26.1L220.8,26.5L221.0,26.3L221.2,26.2L223.9,27.0L223.8,27.6L225.6,27.6L226.7,29.7L226.5,30.6L226.9,31.3L227.2,32.0L235.3,34.0L234.8,33.4L250.3,36.7L249.0,37.8L249.3,38.2L248.1,40.3L246.9,40.7L245.2,43.0L243.7,43.0L243.3,42.3L242.0,42.0L242.9,42.3L242.3,42.9L243.3,42.7L243.2,43.0L244.3,43.3L244.3,43.9L245.3,43.8L245.4,44.4L245.9,44.3L247.9,41.5L249.4,41.1L250.2,39.4L249.7,39.3L249.6,39.2L250.4,38.3L252.3,37.6L252.3,38.1L251.8,38.3L252.1,38.6L254.8,38.9L254.6,39.8L253.3,41.3L253.5,41.4L253.8,41.5L254.4,40.9L254.3,41.8L255.2,40.9L254.9,41.2L255.4,41.6L255.3,42.2L254.1,43.2L253.9,42.8L252.6,42.8L251.1,43.7L250.7,44.6L250.9,46.4L249.8,47.0L249.4,47.7L249.6,48.4L247.4,49.1L247.2,49.4L247.3,49.5L247.9,50.4L246.6,52.0L244.6,49.7L244.4,49.1L245.0,48.8L244.3,46.2L243.7,46.1L243.8,46.8L242.6,47.1L239.6,45.1L239.1,45.5L238.8,45.8L238.4,46.3L239.7,46.6L240.3,47.3L240.5,49.4L238.4,49.4L238.0,50.6L238.7,50.8L238.4,51.1L239.0,51.6L238.5,52.7L239.8,52.4L239.1,53.2L240.0,52.8L239.6,53.1L240.0,53.0L240.0,53.3L240.2,52.8L240.2,53.3L240.5,52.7L240.4,53.4L240.7,52.7L240.5,52.6L240.4,52.6L240.8,52.6L240.3,53.7L240.4,53.4L239.5,53.5L239.9,54.0L237.4,53.7L238.3,53.8L239.2,55.0L239.0,55.1L239.5,55.7L238.3,56.6L239.2,59.5L239.7,59.5L239.4,59.6L240.2,60.7L241.7,60.7L239.7,61.3L240.2,61.5L239.6,61.6L239.7,62.0L240.6,61.8L239.6,62.5L242.1,61.7L243.2,61.9L243.7,63.9L244.4,64.7L246.4,65.1L248.1,66.1L247.3,66.2L245.9,67.4L246.1,67.6L245.2,67.6L244.4,66.3L243.4,65.7L244.4,66.6L243.2,65.8L244.0,66.6L244.2,67.7L244.8,67.7L245.6,68.6L246.2,68.3L246.0,68.6L250.7,70.0L251.4,69.8L251.7,70.9L250.1,71.1L245.9,69.1L244.8,69.3L241.7,67.3L239.4,67.4L238.5,66.9L234.5,67.7L233.7,67.9L233.8,68.2L231.4,68.3L230.3,69.4L230.6,70.8L227.7,70.3L226.1,67.5L226.6,66.7L226.3,65.2L227.0,64.4L226.9,63.3L225.2,60.3L225.4,59.6L226.9,58.3L226.5,55.7L226.2,55.8L226.6,58.2L224.8,60.0L226.3,63.3L226.3,64.3L225.3,64.8L223.2,68.3L222.8,68.4L222.7,68.4L222.2,67.5L220.9,66.9L218.5,66.8L221.7,67.6L221.3,69.2L221.9,69.4L221.5,69.5L222.5,70.4L222.2,70.8L218.2,71.0L217.9,70.9L218.4,70.8L216.5,70.2L216.4,69.7L216.8,70.0L217.0,69.4L216.7,68.5L216.1,68.8L216.4,69.4L215.8,68.8L212.2,68.4L210.6,66.7L207.7,66.0L207.6,66.1L207.6,66.3L209.8,66.9L210.7,67.7L212.0,70.0L210.1,72.3L209.2,72.6L206.9,72.4L206.5,71.8L203.4,72.0L201.2,70.4L200.8,70.8L201.1,70.4L199.4,70.2L199.9,70.8L199.4,70.2L198.4,70.5L198.3,70.3L198.2,70.0L198.1,70.5L198.0,70.1L197.8,70.4L197.7,70.1L194.6,70.8L189.8,74.4L186.0,73.4L184.0,71.9L181.6,71.8L181.8,71.4L181.1,71.2L179.0,68.6L179.2,65.3L178.6,58.7L178.8,57.6L181.1,53.5L184.2,49.8L188.9,45.4L189.2,45.5L189.5,45.3L189.2,45.1L190.4,44.0L191.2,41.5L191.8,41.2L192.3,40.0L190.5,38.6L187.7,40.0L186.7,40.0L184.1,38.6L183.0,38.6L185.3,34.8L189.3,25.9L189.9,23.4L190.5,22.7L209.5,27.5Z"/></clipPath></defs><path d="M137.7,115.6L137.7,113.3M137.7,113.3L138.5,111.4M138.5,111.4L140.0,109.8M140.0,109.8L141.2,108.1M141.2,108.1L141.5,106.6M141.5,106.6L142.0,104.2M142.0,104.2L143.2,102.0M143.2,102.0L144.6,100.1M144.6,100.1L145.8,98.7M145.8,98.7L146.9,97.3M146.9,97.3L148.1,96.0M148.1,96.0L149.3,94.6M149.3,94.6L151.1,92.5M151.1,92.5L152.9,89.6M152.9,89.6L153.9,86.8M153.9,86.8L153.8,84.5M153.8,84.5L153.9,82.4M153.9,82.4L154.9,80.0M154.9,80.0L156.8,77.9M156.8,77.9L158.8,75.6M158.8,75.6L160.8,73.2M160.8,73.2L161.6,71.2M161.6,71.2L163.0,69.6M163.0,69.6L165.9,66.2M165.9,66.2L168.3,63.4M168.3,63.4L170.0,61.4M170.0,61.4L172.8,58.2M172.8,58.2L175.2,55.3M175.2,55.3L178.6,51.4M178.6,51.4L180.7,48.9M180.7,48.9L182.7,46.6M182.7,46.6L186.1,44.8M186.1,44.8L187.9,42.7M187.9,42.7L190.7,40.5M190.7,40.5L193.3,38.6M193.3,38.6L195.3,36.1M195.3,36.1L196.4,34.1M171.4,145.8L171.0,142.7M171.0,142.7L170.7,140.4M170.7,140.4L170.4,137.9M170.4,137.9L170.1,135.4M170.1,135.4L169.8,132.8M169.8,132.8L169.9,130.5M169.9,130.5L166.1,129.3M166.1,129.3L162.9,128.7M162.9,128.7L159.5,127.3M159.5,127.3L157.4,124.9M157.4,124.9L156.1,123.3M156.1,123.3L154.6,121.7M154.6,121.7L152.3,120.7M152.3,120.7L149.8,119.5M149.8,119.5L148.2,117.6M148.2,117.6L140.0,113.6M140.0,113.6L141.3,112.4M141.3,112.4L140.2,110.8M140.2,110.8L140.0,109.8M140.0,109.8L144.6,100.1M144.6,100.1L149.3,94.6M151.1,92.5L153.9,82.4M153.9,82.4L158.8,75.6M158.8,75.6L169.3,73.4M169.3,73.4L170.4,72.1M170.4,72.1L172.5,69.6M172.5,69.6L174.9,66.8M174.9,66.8L182.1,65.0M182.1,65.0L186.7,66.0M186.7,66.0L191.7,65.8M191.7,65.8L194.8,64.4M194.8,64.4L197.4,63.3M197.4,63.3L199.3,62.5M199.3,62.5L199.9,59.9M199.9,59.9L202.0,56.7M202.0,56.7L205.9,55.4M205.9,55.4L209.3,54.7M209.3,54.7L211.8,51.7M211.8,51.7L212.3,48.1M212.3,48.1L212.4,44.5M212.4,44.5L212.5,41.9M212.5,41.9L212.9,39.1M212.9,39.1L214.8,36.4M214.8,36.4L216.0,34.6M216.0,34.6L217.4,32.4M217.4,32.4L219.0,30.1M219.0,30.1L220.9,28.1M166.1,129.3L170.0,129.7M170.0,129.7L174.2,129.9M174.2,129.9L178.9,130.1M178.9,130.1L184.2,131.9M184.2,131.9L187.4,133.3M187.4,133.3L191.2,132.8M191.2,132.8L194.5,132.4M194.5,132.4L198.3,131.9M198.3,131.9L201.1,131.6M201.1,131.6L203.8,131.2M177.1,62.6L177.2,64.1M177.2,64.1L174.9,66.8M178.9,130.1L166.1,129.3M166.1,129.3L156.1,123.3M154.6,121.7L149.7,119.8M149.7,119.8L137.5,114.4M137.5,114.4L138.6,113.2M138.6,113.2L139.8,112.0M139.8,112.0L142.6,110.8M142.6,110.8L149.8,101.4M149.8,101.4L156.5,94.0M156.5,94.0L161.0,89.3M161.0,89.3L167.4,81.9M167.4,81.9L176.5,71.2M176.5,71.2L180.5,67.2M180.5,67.2L181.8,65.0M181.8,65.0L182.5,60.8M182.5,60.8L184.8,57.5M184.8,57.5L186.6,55.5M186.6,55.5L188.2,53.6M188.2,53.6L189.7,51.9M189.7,51.9L191.8,49.7M191.8,49.7L193.7,47.5M193.7,47.5L195.2,45.6M195.2,45.6L197.2,43.5M197.2,43.5L200.8,41.0M200.8,41.0L203.6,38.2M203.6,38.2L206.6,35.5M181.8,65.0L176.5,71.2M180.5,67.2L182.1,65.0M209.3,54.7L215.9,49.3M215.9,49.3L218.5,47.3M218.5,47.3L223.1,42.7M223.1,42.7L227.1,38.7M227.1,38.7L231.0,34.5M209.3,54.7L186.7,66.0M209.3,54.7L212.9,39.1M142.6,110.8L144.6,108.3M144.6,108.3L146.1,106.8M146.1,106.8L147.4,105.2M147.4,105.2L149.2,103.4M149.2,103.4L149.8,101.4M149.8,101.4L151.5,99.2M151.5,99.2L152.7,97.8M152.7,97.8L153.8,96.5M153.8,96.5L156.5,94.0M156.5,94.0L159.0,91.7M159.0,91.7L161.0,89.3M161.0,89.3L163.1,86.9M163.1,86.9L165.2,84.5M165.2,84.5L167.4,81.9M167.4,81.9L169.7,79.2M169.7,79.2L171.5,77.1M171.5,77.1L173.1,75.1M173.1,75.1L174.5,73.6M174.5,73.6L176.5,71.2M176.5,71.2L182.4,68.4M182.4,68.4L185.9,69.7M185.9,69.7L188.6,70.6M188.6,70.6L191.8,69.2M191.8,69.2L193.6,67.7M193.6,67.7L197.5,66.0M197.5,66.0L200.5,63.9M200.5,63.9L202.7,61.4M202.7,61.4L206.4,60.5M206.4,60.5L208.7,60.1M208.7,60.1L212.3,59.3M212.3,59.3L215.7,58.5M215.7,58.5L220.6,58.1M220.6,58.1L222.8,57.1M222.8,57.1L224.8,55.6M224.8,55.6L228.2,53.9M228.2,53.9L230.1,52.6M230.1,52.6L232.4,50.1M215.7,58.5L200.5,63.9M200.5,63.9L182.4,68.4M143.7,92.2L151.0,92.4M151.0,92.4L153.9,93.1M153.9,93.1L156.9,94.1M156.9,94.1L168.4,98.0M168.4,98.0L170.8,98.1M170.8,98.1L172.6,96.1M172.6,96.1L175.2,94.5M175.2,94.5L179.9,97.1M179.9,97.1L183.5,97.5M183.5,97.5L186.3,97.7M186.3,97.7L194.2,96.7M194.2,96.7L200.1,96.1M200.1,96.1L204.0,95.8M204.0,95.8L207.7,95.4M207.7,95.4L211.3,95.1M211.3,95.1L214.8,94.8M214.8,94.8L218.5,94.0M218.5,94.0L223.5,92.7M223.5,92.7L231.4,90.6M200.1,96.1L197.6,96.4M197.6,96.4L194.2,96.7M194.2,96.7L189.3,97.3M189.3,97.3L186.3,97.7M223.5,92.7L211.3,95.1M211.3,95.1L200.1,96.1M233.6,122.7L230.3,123.4M230.3,123.4L227.5,124.5M227.5,124.5L224.4,125.1M224.4,125.1L220.5,125.3M220.5,125.3L216.7,125.5M216.7,125.5L213.6,126.5M213.6,126.5L210.0,127.3M210.0,127.3L193.0,126.0M193.0,126.0L180.0,125.5M180.0,125.5L170.0,125.1M170.0,125.1L152.3,121.5M152.3,121.5L151.1,119.9M151.1,119.9L149.5,116.8M149.5,116.8L140.8,112.1M140.8,112.1L140.3,110.4M140.3,110.4L142.0,107.5M142.0,107.5L144.4,102.4M144.4,102.4L143.8,98.7M143.8,98.7L148.1,93.8M148.1,93.8L149.9,91.6M149.9,91.6L154.0,86.8M154.0,86.8L169.0,68.1M169.0,68.1L173.2,62.2M173.2,62.2L175.5,55.2M175.5,55.2L175.5,52.3M175.5,52.3L176.3,50.5M176.3,50.5L178.3,47.3M178.3,47.3L181.8,44.5M181.8,44.5L185.6,43.3M224.4,125.1L229.4,130.4M229.4,130.4L231.3,133.7M231.3,133.7L238.6,156.4M238.6,156.4L248.3,164.0M248.3,164.0L252.6,163.4M252.6,163.4L259.0,163.2M259.0,163.2L263.0,162.1M263.0,162.1L266.5,160.1M266.5,160.1L269.5,158.3M229.4,130.4L228.4,128.7M228.4,128.7L224.4,125.1M228.6,168.4L232.7,167.4M232.7,167.4L236.3,166.5M236.3,166.5L239.8,165.3M239.8,165.3L238.6,156.4M202.3,41.1L199.0,43.8M199.0,43.8L196.9,46.3M196.9,46.3L195.3,48.5M195.3,48.5L193.1,51.0M193.1,51.0L190.6,53.0M190.6,53.0L188.9,55.9M188.9,55.9L186.3,58.3M186.3,58.3L182.6,60.8M182.6,60.8L176.2,59.9M176.2,59.9L173.2,62.2M173.2,62.2L171.4,65.2M171.4,65.2L169.0,68.1M169.0,68.1L167.7,70.8M167.7,70.8L166.0,72.7M166.0,72.7L164.4,74.7M164.4,74.7L162.7,76.6M162.7,76.6L160.6,79.1M160.6,79.1L158.9,81.1M158.9,81.1L156.7,83.6M156.7,83.6L154.0,86.8M154.0,86.8L154.1,89.2M154.1,89.2L154.2,91.0M154.2,91.0L152.6,92.9M152.6,92.9L150.9,94.9M150.9,94.9L144.4,102.4M144.4,102.4L146.6,105.5M146.6,105.5L147.9,108.6M147.9,108.6L154.0,120.6M154.0,120.6L156.5,123.3M156.5,123.3L158.8,126.5M158.8,126.5L164.0,133.3M164.0,133.3L163.6,138.1M163.6,138.1L163.7,144.8M163.7,144.8L166.3,156.3M166.3,156.3L168.1,165.8M168.1,165.8L164.4,169.8M193.1,51.0L196.9,46.3M175.5,55.2L175.4,57.3M175.4,57.3L174.5,59.7M174.5,59.7L173.2,62.2M173.2,62.2L171.4,65.2M154.0,86.8L151.8,89.3M151.8,89.3L149.9,91.6M148.1,93.8L145.7,96.5M145.7,96.5L143.8,98.7M144.4,102.4L142.8,105.1M142.8,105.1L142.0,107.5M152.3,121.5L158.0,122.6M158.0,122.6L162.1,123.8M162.1,123.8L166.7,124.6M166.7,124.6L170.0,125.1M170.0,125.1L174.9,125.3M174.9,125.3L180.0,125.5M180.0,125.5L185.1,125.8M185.1,125.8L189.6,126.0M189.6,126.0L193.0,126.0M193.0,126.0L197.5,127.6M197.5,127.6L200.6,128.4M200.6,128.4L205.5,127.8M205.5,127.8L210.0,127.3M154.3,169.9L153.0,164.9M153.0,164.9L151.4,161.1M151.4,161.1L147.9,159.3M147.9,159.3L145.6,158.1M145.6,158.1L143.8,156.6M143.8,156.6L144.4,154.2M144.4,154.2L145.3,151.6M145.3,151.6L146.3,148.6M146.3,148.6L147.0,146.4M147.0,146.4L147.3,144.3M147.3,144.3L147.6,142.3M147.6,142.3L147.6,139.9M147.6,139.9L142.9,136.1M142.9,136.1L155.5,123.6M155.5,123.6L147.9,108.6M169.0,68.1L173.2,62.2M202.3,41.1L206.5,40.4M193.1,51.0L173.2,62.2M139.7,111.1L142.0,107.5M151.8,89.3L154.1,89.2M154.1,89.2L157.3,90.3M157.3,90.3L160.5,91.5M160.5,91.5L172.2,95.7M172.2,95.7L176.7,95.2M176.7,95.2L200.1,96.2M200.1,96.2L224.0,107.1M224.0,107.1L230.9,110.2M230.9,110.2L238.2,115.4M238.2,115.4L242.7,116.3M242.7,116.3L246.2,115.6M255.0,111.0L245.1,113.2M245.1,113.2L230.9,110.2M255.0,111.0L250.0,112.0M250.0,112.0L245.1,113.2M245.1,113.2L241.3,114.2M241.3,114.2L236.3,112.5M236.3,112.5L230.9,110.2M230.9,110.2L227.7,108.5M227.7,108.5L224.0,107.1M157.3,90.3L154.2,91.0M150.9,94.9L148.4,97.9M148.4,97.9L146.6,99.9M146.6,99.9L144.4,102.4M146.6,105.5L149.8,106.3M149.8,106.3L150.8,108.4M150.8,108.4L149.7,110.6M149.7,110.6L151.5,115.9M151.5,115.9L151.1,119.9M151.1,119.9L149.4,122.6M149.4,122.6L147.2,125.1M147.2,125.1L146.8,128.0M146.8,128.0L149.9,129.5M149.9,129.5L154.7,131.2M154.7,131.2L155.2,133.8M155.2,133.8L157.1,138.0M157.1,138.0L155.1,140.9M155.1,140.9L155.8,144.4M155.8,144.4L156.4,147.1M156.4,147.1L156.9,149.1M156.9,149.1L157.3,151.0M157.3,151.0L157.9,153.5M157.9,153.5L158.5,156.2M158.5,156.2L158.8,158.7M158.8,158.7L158.3,161.8M158.3,161.8L157.8,164.6M157.8,164.6L157.7,168.4M157.7,168.4L157.0,170.5M157.0,170.5L154.3,169.9M164.0,133.3L165.5,129.5M165.5,129.5L166.3,127.5M166.3,127.5L167.2,125.0M155.1,140.9L154.7,131.2M154.7,131.2L151.1,119.9M173.4,96.3L170.3,97.3M170.3,97.3L167.9,102.9M167.9,102.9L169.6,105.8M169.6,105.8L169.5,111.0M169.5,111.0L170.0,113.9M170.0,113.9L170.1,116.4M170.1,116.4L170.7,118.9M170.7,118.9L168.4,121.1M168.4,121.1L165.1,121.4M165.1,121.4L161.6,121.7M161.6,121.7L157.3,122.1M157.3,122.1L152.3,121.5M152.3,121.5L149.4,122.6M155.3,93.5L151.7,92.1M139.0,113.7L140.8,112.0M140.8,112.0L143.0,110.8M143.0,110.8L144.7,108.7M144.7,108.7L147.8,107.7M147.8,107.7L151.1,108.6M151.1,108.6L166.2,112.9M166.2,112.9L168.5,113.5M168.5,113.5L171.5,114.8M171.5,114.8L174.7,116.4M174.7,116.4L177.5,117.7M177.5,117.7L181.0,119.4M181.0,119.4L184.4,121.1M184.4,121.1L187.3,122.5M187.3,122.5L190.4,124.0M190.4,124.0L193.4,125.5M193.4,125.5L196.4,126.6M196.4,126.6L200.0,126.1M200.0,126.1L203.6,125.3M203.6,125.3L205.9,124.6M205.9,124.6L209.1,123.9M209.1,123.9L209.7,120.9M209.7,120.9L212.5,120.3M212.5,120.3L216.1,119.8M216.1,119.8L220.4,119.2M220.4,119.2L224.1,118.6M224.1,118.6L228.2,117.7M228.2,117.7L232.3,116.3M232.3,116.3L242.7,116.3M177.5,117.7L166.2,112.9M242.7,116.3L228.2,117.7M228.2,117.7L220.4,119.2M216.1,119.8L209.7,120.9M209.1,123.9L203.6,125.3M203.6,125.3L196.4,126.6M193.4,125.5L187.3,122.5M187.3,122.5L181.0,119.4M143.4,99.2L146.3,100.3M146.3,100.3L149.4,101.4M149.4,101.4L151.8,102.2M151.8,102.2L154.1,103.1M154.1,103.1L166.7,109.0M166.7,109.0L170.1,110.4M170.1,110.4L173.2,110.2M173.2,110.2L175.0,111.3M175.0,111.3L175.4,113.2M175.4,113.2L178.8,113.9M178.8,113.9L184.0,113.7M184.0,113.7L186.3,114.9M186.3,114.9L189.8,116.6M189.8,116.6L193.6,118.4M193.6,118.4L193.7,121.4M193.7,121.4L193.0,124.0M193.0,124.0L194.1,125.7M194.1,125.7L194.1,127.3M194.1,127.3L194.7,129.9M194.7,129.9L195.4,132.2M195.4,132.2L196.1,134.5M196.1,134.5L196.0,138.1M196.0,138.1L194.8,139.8M224.0,107.1L219.9,105.0M219.9,105.0L215.3,103.5M215.3,103.5L211.4,102.1M211.4,102.1L207.3,100.4M207.3,100.4L204.9,98.0M204.9,98.0L200.1,96.2M200.1,96.2L196.5,94.9M196.5,94.9L192.7,93.5M192.7,93.5L188.9,92.0M188.9,92.0L185.1,91.8M185.1,91.8L181.0,93.9M181.0,93.9L173.9,92.9M173.9,92.9L168.5,90.8M168.5,90.8L162.0,88.4M162.0,88.4L156.2,88.7M156.2,88.7L154.2,91.0M146.6,105.5L151.1,108.6M177.5,117.7L181.7,117.5M181.7,117.5L185.7,117.1M185.7,117.1L189.4,116.8M189.4,116.8L191.8,115.3M191.8,115.3L194.2,114.6M194.2,114.6L197.8,113.8M197.8,113.8L201.0,111.6M189.6,83.9L186.6,85.9M186.6,85.9L184.8,87.4M184.8,87.4L182.7,89.6M182.7,89.6L180.6,91.8M180.6,91.8L179.0,93.5M179.0,93.5L175.2,94.5M175.2,94.5L161.4,89.2M161.4,89.2L158.3,88.3M158.3,88.3L154.6,88.4M154.6,88.4L152.8,90.4M152.8,90.4L151.4,92.7M151.4,92.7L150.8,94.9M150.8,94.9L149.5,101.0M149.5,101.0L144.5,108.5M144.5,108.5L155.5,123.6M142.9,136.1L135.6,142.1M135.6,142.1L138.7,144.8M138.7,144.8L142.0,146.4M142.0,146.4L146.6,149.3M146.6,149.3L149.6,151.1M149.6,151.1L152.3,152.5M152.3,152.5L154.0,154.9M154.0,154.9L154.7,158.4M154.7,158.4L155.3,161.2M155.3,161.2L155.8,163.3M155.8,163.3L154.3,169.9M151.4,92.7L154.6,88.4M154.6,88.4L162.0,88.4M162.0,88.4L165.9,86.6M165.9,86.6L169.3,82.6M169.3,82.6L171.7,79.8M157.0,170.5L160.8,170.4M160.8,170.4L164.4,169.8M168.1,165.8L167.6,162.2M167.6,162.2L167.2,160.4M167.2,160.4L166.3,156.3M166.3,156.3L165.4,152.4M165.4,152.4L164.7,149.2M164.7,149.2L164.3,147.3M164.3,147.3L163.7,144.8M163.7,144.8L163.1,142.3M163.1,142.3L162.8,140.9M162.8,140.9L163.6,138.1M163.6,138.1L164.3,136.0M164.3,136.0L164.0,133.3M154.0,120.6L144.5,108.5M181.0,93.9L176.7,95.2M176.7,95.2L161.4,89.2M150.8,94.9L150.5,96.7M150.5,96.7L150.1,98.5M150.1,98.5L149.5,101.0M149.5,101.0L148.5,103.3M148.5,103.3L145.9,105.9M145.9,105.9L143.8,108.0M143.8,108.0L141.1,110.7M141.1,110.7L139.1,111.9M139.1,111.9L137.9,113.4M137.9,113.4L138.1,115.2M138.1,115.2L148.9,119.1M148.9,119.1L151.9,119.9M151.9,119.9L154.0,120.6M154.0,120.6L155.5,123.6M155.5,123.6L153.3,126.4M153.3,126.4L150.7,129.2M150.7,129.2L148.3,131.6M148.3,131.6L145.7,133.8M145.7,133.8L142.9,136.1M142.9,136.1L139.6,138.8M139.6,138.8L137.5,140.5M137.5,140.5L135.6,142.1M135.6,142.1L132.8,144.9M132.8,144.9L131.7,147.1M131.7,147.1L130.2,150.2M130.2,150.2L128.9,152.8M147.6,139.9L146.3,148.6M146.3,148.6L147.9,159.3M232.3,116.3L224.1,118.6M220.4,119.2L212.5,120.3M212.5,120.3L209.1,123.9M205.9,124.6L200.0,126.1M190.4,124.0L184.4,121.1M184.4,121.1L177.5,117.7" clip-path="url(#land)" fill="none" stroke="#59656b" stroke-width="0.65" stroke-linecap="round" stroke-linejoin="round" opacity="0.22"/></svg>
